<?xml version="1.0" encoding="UTF-8"?>
<svg xmlns="http://www.w3.org/2000/svg" xmlns:xlink="http://www.w3.org/1999/xlink" viewBox="0 0 240 240" width="240px" height="240px">
<g id="surface137983583">
<path style=" stroke:none;fill-rule:nonzero;fill:rgb(90.196079%,29.019609%,9.803922%);fill-opacity:1;" d="M 130 85 L 90 85 C 70.671875 85 55 69.328125 55 50 C 55 30.671875 70.671875 15 90 15 L 130 15 Z M 130 85 "/>
<path style=" stroke:none;fill-rule:nonzero;fill:rgb(48.627451%,30.19608%,100%);fill-opacity:1;" d="M 125 155 L 90 155 C 70.671875 155 55 139.328125 55 120 C 55 100.671875 70.671875 85 90 85 L 125 85 Z M 125 155 "/>
<path style=" stroke:none;fill-rule:nonzero;fill:rgb(40.000001%,73.333335%,41.568628%);fill-opacity:1;" d="M 90 225 C 70.671875 225 55 209.328125 55 190 C 55 170.667969 70.671875 155 90 155 L 125 155 L 125 190 C 125 209.328125 109.328125 225 90 225 Z M 90 225 "/>
<path style=" stroke:none;fill-rule:nonzero;fill:rgb(100%,43.921569%,26.274511%);fill-opacity:1;" d="M 160 85 L 125 85 L 125 15 L 160 15 C 179.328125 15 195 30.671875 195 50 C 195 69.328125 179.328125 85 160 85 Z M 160 85 "/>
<path style=" stroke:none;fill-rule:nonzero;fill:rgb(16.078432%,71.372551%,96.470588%);fill-opacity:1;" d="M 195 120 C 195 139.328125 179.328125 155 160 155 C 140.671875 155 125 139.328125 125 120 C 125 100.671875 140.671875 85 160 85 C 179.328125 85 195 100.671875 195 120 Z M 195 120 "/>
<path style=" stroke:none;fill-rule:nonzero;fill:rgb(100%,100%,100%);fill-opacity:1;" d="M 94.433594 58.40625 L 92.023438 52.566406 L 90.421875 52.566406 L 90.421875 58.40625 L 87.1875 58.40625 L 87.1875 42.414062 L 92.34375 42.414062 C 93.960938 42.414062 95.210938 42.832031 96.09375 43.667969 C 96.976562 44.507812 97.414062 45.695312 97.414062 47.242188 C 97.414062 49.367188 96.644531 50.851562 95.101562 51.703125 L 97.902344 58.257812 L 97.902344 58.40625 Z M 90.421875 45.101562 L 90.421875 49.867188 L 92.257812 49.867188 C 92.902344 49.867188 93.382812 49.652344 93.703125 49.226562 C 94.027344 48.796875 94.191406 48.226562 94.191406 47.511719 C 94.191406 45.90625 93.5625 45.101562 92.304688 45.101562 Z M 108.132812 58.40625 L 107.269531 55.132812 L 102.871094 55.132812 L 102.007812 58.40625 L 98.597656 58.40625 L 103.59375 42.414062 L 106.546875 42.414062 L 111.582031 58.40625 Z M 105.066406 46.734375 L 103.574219 52.445312 L 106.554688 52.445312 Z M 121.320312 49.199219 L 121.320312 51.882812 L 116.304688 51.882812 L 116.304688 58.40625 L 113.070312 58.40625 L 113.070312 42.414062 L 121.929688 42.414062 L 121.929688 45.101562 L 116.304688 45.101562 L 116.304688 49.199219 Z M 135.710938 54.207031 C 135.710938 53.554688 135.546875 53.066406 135.214844 52.734375 C 134.882812 52.398438 134.277344 52.050781 133.398438 51.695312 C 131.796875 51.085938 130.644531 50.375 129.9375 49.554688 C 129.238281 48.738281 128.886719 47.773438 128.886719 46.660156 C 128.886719 45.316406 129.363281 44.234375 130.3125 43.414062 C 131.269531 42.597656 132.484375 42.1875 133.960938 42.1875 C 134.941406 42.1875 135.816406 42.398438 136.585938 42.816406 C 137.351562 43.226562 137.945312 43.808594 138.355469 44.558594 C 138.773438 45.316406 138.984375 46.175781 138.984375 47.136719 L 135.757812 47.136719 C 135.757812 46.386719 135.601562 45.816406 135.28125 45.421875 C 134.960938 45.035156 134.503906 44.839844 133.902344 44.839844 C 133.339844 44.839844 132.898438 45.007812 132.582031 45.335938 C 132.269531 45.667969 132.113281 46.117188 132.113281 46.6875 C 132.113281 47.125 132.289062 47.523438 132.636719 47.878906 C 132.992188 48.234375 133.617188 48.601562 134.511719 48.984375 C 136.070312 49.546875 137.199219 50.238281 137.90625 51.054688 C 138.613281 51.875 138.964844 52.917969 138.964844 54.1875 C 138.964844 55.582031 138.523438 56.667969 137.644531 57.449219 C 136.757812 58.230469 135.550781 58.621094 134.023438 58.621094 C 132.992188 58.621094 132.054688 58.410156 131.203125 57.984375 C 130.351562 57.566406 129.6875 56.960938 129.207031 56.164062 C 128.726562 55.371094 128.484375 54.4375 128.484375 53.363281 L 131.726562 53.363281 C 131.726562 54.289062 131.90625 54.960938 132.261719 55.378906 C 132.625 55.789062 133.210938 55.996094 134.023438 55.996094 C 135.148438 55.996094 135.710938 55.398438 135.710938 54.207031 Z M 149.605469 58.40625 L 148.742188 55.132812 L 144.335938 55.132812 L 143.484375 58.40625 L 140.070312 58.40625 L 145.070312 42.414062 L 148.023438 42.414062 L 153.054688 58.40625 Z M 146.539062 46.734375 L 145.039062 52.445312 L 148.03125 52.445312 Z M 165.730469 42.414062 L 165.730469 58.40625 L 162.496094 58.40625 L 157.78125 47.914062 L 157.78125 58.40625 L 154.546875 58.40625 L 154.546875 42.414062 L 157.78125 42.414062 L 162.515625 52.914062 L 162.515625 42.414062 Z M 165.730469 42.414062 "/>
</g>
</svg>
