<?xml version="1.0" encoding="UTF-8"?>
<svg xmlns="http://www.w3.org/2000/svg" xmlns:xlink="http://www.w3.org/1999/xlink" viewBox="0 0 144 144" width="144px" height="144px">
<g id="surface137688052">
<path style=" stroke:none;fill-rule:nonzero;fill:rgb(90.196079%,29.019609%,9.803922%);fill-opacity:1;" d="M 78 51 L 54 51 C 42.402344 51 33 41.597656 33 30 C 33 18.402344 42.402344 9 54 9 L 78 9 Z M 78 51 "/>
<path style=" stroke:none;fill-rule:nonzero;fill:rgb(48.627451%,30.19608%,100%);fill-opacity:1;" d="M 75 93 L 54 93 C 42.402344 93 33 83.597656 33 72 C 33 60.402344 42.402344 51 54 51 L 75 51 Z M 75 93 "/>
<path style=" stroke:none;fill-rule:nonzero;fill:rgb(40.000001%,73.333335%,41.568628%);fill-opacity:1;" d="M 54 135 C 42.402344 135 33 125.597656 33 114 C 33 102.402344 42.402344 93 54 93 L 75 93 L 75 114 C 75 125.597656 65.597656 135 54 135 Z M 54 135 "/>
<path style=" stroke:none;fill-rule:nonzero;fill:rgb(100%,43.921569%,26.274511%);fill-opacity:1;" d="M 96 51 L 75 51 L 75 9 L 96 9 C 107.597656 9 117 18.402344 117 30 C 117 41.597656 107.597656 51 96 51 Z M 96 51 "/>
<path style=" stroke:none;fill-rule:nonzero;fill:rgb(16.078432%,71.372551%,96.470588%);fill-opacity:1;" d="M 117 72 C 117 83.597656 107.597656 93 96 93 C 84.402344 93 75 83.597656 75 72 C 75 60.402344 84.402344 51 96 51 C 107.597656 51 117 60.402344 117 72 Z M 117 72 "/>
<path style=" stroke:none;fill-rule:nonzero;fill:rgb(100%,100%,100%);fill-opacity:1;" d="M 56.660156 35.042969 L 55.214844 31.539062 L 54.253906 31.539062 L 54.253906 35.042969 L 52.3125 35.042969 L 52.3125 25.449219 L 55.40625 25.449219 C 56.378906 25.449219 57.128906 25.699219 57.65625 26.203125 C 58.183594 26.703125 58.449219 27.417969 58.449219 28.34375 C 58.449219 29.621094 57.984375 30.511719 57.058594 31.023438 L 58.742188 34.953125 L 58.742188 35.042969 Z M 54.253906 27.0625 L 54.253906 29.917969 L 55.355469 29.917969 C 55.742188 29.917969 56.03125 29.792969 56.222656 29.535156 C 56.417969 29.277344 56.515625 28.933594 56.515625 28.507812 C 56.515625 27.542969 56.136719 27.0625 55.382812 27.0625 Z M 64.878906 35.042969 L 64.359375 33.082031 L 61.722656 33.082031 L 61.207031 35.042969 L 59.15625 35.042969 L 62.15625 25.449219 L 63.929688 25.449219 L 66.949219 35.042969 Z M 63.039062 28.039062 L 62.144531 31.464844 L 63.933594 31.464844 Z M 72.792969 29.519531 L 72.792969 31.128906 L 69.785156 31.128906 L 69.785156 35.042969 L 67.84375 35.042969 L 67.84375 25.449219 L 73.160156 25.449219 L 73.160156 27.0625 L 69.785156 27.0625 L 69.785156 29.519531 Z M 81.425781 32.523438 C 81.425781 32.132812 81.328125 31.839844 81.128906 31.640625 C 80.929688 31.4375 80.566406 31.230469 80.039062 31.015625 C 79.078125 30.652344 78.386719 30.226562 77.960938 29.734375 C 77.542969 29.242188 77.332031 28.664062 77.332031 27.996094 C 77.332031 27.1875 77.617188 26.539062 78.1875 26.050781 C 78.761719 25.558594 79.492188 25.3125 80.375 25.3125 C 80.964844 25.3125 81.488281 25.4375 81.949219 25.6875 C 82.410156 25.9375 82.765625 26.285156 83.015625 26.734375 C 83.265625 27.1875 83.390625 27.703125 83.390625 28.28125 L 81.457031 28.28125 C 81.457031 27.832031 81.359375 27.488281 81.167969 27.253906 C 80.976562 27.019531 80.703125 26.90625 80.34375 26.90625 C 80.003906 26.90625 79.738281 27.003906 79.546875 27.203125 C 79.359375 27.402344 79.265625 27.671875 79.265625 28.011719 C 79.265625 28.273438 79.371094 28.511719 79.582031 28.726562 C 79.796875 28.941406 80.171875 29.160156 80.707031 29.390625 C 81.640625 29.726562 82.320312 30.140625 82.742188 30.632812 C 83.167969 31.125 83.378906 31.75 83.378906 32.511719 C 83.378906 33.347656 83.113281 34 82.585938 34.46875 C 82.054688 34.9375 81.328125 35.171875 80.414062 35.171875 C 79.796875 35.171875 79.230469 35.046875 78.722656 34.789062 C 78.210938 34.539062 77.8125 34.175781 77.523438 33.699219 C 77.234375 33.222656 77.089844 32.664062 77.089844 32.015625 L 79.035156 32.015625 C 79.035156 32.574219 79.144531 32.976562 79.359375 33.226562 C 79.574219 33.472656 79.925781 33.597656 80.414062 33.597656 C 81.089844 33.597656 81.425781 33.238281 81.425781 32.523438 Z M 89.765625 35.042969 L 89.246094 33.082031 L 86.601562 33.082031 L 86.089844 35.042969 L 84.042969 35.042969 L 87.042969 25.449219 L 88.8125 25.449219 L 91.832031 35.042969 Z M 87.925781 28.039062 L 87.023438 31.464844 L 88.820312 31.464844 Z M 99.4375 25.449219 L 99.4375 35.042969 L 97.5 35.042969 L 94.667969 28.75 L 94.667969 35.042969 L 92.726562 35.042969 L 92.726562 25.449219 L 94.667969 25.449219 L 97.507812 31.746094 L 97.507812 25.449219 Z M 99.4375 25.449219 "/>
</g>
</svg>
