<?xml version="1.0" encoding="UTF-8"?>
<svg xmlns="http://www.w3.org/2000/svg" xmlns:xlink="http://www.w3.org/1999/xlink" viewBox="0 0 240 240" width="240px" height="240px">
<g id="surface45531705">
<path style=" stroke:none;fill-rule:nonzero;fill:rgb(1.176471%,66.274512%,95.686275%);fill-opacity:1;" d="M 30 50 C 30 38.953125 38.953125 30 50 30 L 190 30 C 201.042969 30 210 38.953125 210 50 L 210 190 C 210 201.042969 201.042969 210 190 210 L 50 210 C 38.953125 210 30 201.042969 30 190 Z M 30 50 "/>
<path style=" stroke:none;fill-rule:nonzero;fill:rgb(0.784314%,5.882353%,8.627451%);fill-opacity:1;" d="M 100.078125 95.871094 L 90.070312 95.871094 L 90.070312 118.039062 L 99.933594 118.039062 C 102.671875 118.039062 104.785156 117.144531 106.285156 115.355469 C 107.785156 113.566406 108.53125 110.960938 108.53125 107.539062 C 108.53125 103.988281 107.765625 101.171875 106.234375 99.070312 C 104.703125 96.96875 102.648438 95.90625 100.078125 95.871094 Z M 100.078125 95.871094 "/>
<path style=" stroke:none;fill-rule:nonzero;fill:rgb(0.784314%,5.882353%,8.627451%);fill-opacity:1;" d="M 45 45 L 45 195 L 195 195 L 195 45 Z M 116.824219 123.945312 C 112.695312 127.984375 106.964844 130 99.640625 130 L 90.070312 130 L 90.070312 155 L 75.714844 155 L 75.714844 83.90625 L 99.933594 83.90625 C 106.964844 83.90625 112.574219 86.089844 116.753906 90.449219 C 120.933594 94.808594 123.03125 100.476562 123.03125 107.441406 C 123.03125 114.40625 120.960938 119.90625 116.824219 123.945312 Z M 163.410156 151.679688 C 159.863281 154.542969 155.203125 155.976562 149.445312 155.976562 C 145.570312 155.976562 142.148438 155.21875 139.191406 153.703125 C 136.230469 152.191406 133.90625 150.078125 132.230469 147.378906 C 130.554688 144.679688 129.714844 141.765625 129.714844 138.640625 L 142.851562 138.640625 C 142.917969 141.042969 143.476562 142.855469 144.535156 144.058594 C 145.59375 145.265625 147.324219 145.863281 149.734375 145.863281 C 153.445312 145.863281 155.300781 144.191406 155.300781 140.835938 C 155.300781 139.664062 154.738281 138.578125 153.613281 137.589844 C 152.488281 136.601562 150 135.261719 146.125 133.566406 C 140.429688 131.253906 136.515625 128.863281 134.378906 126.386719 C 132.246094 123.90625 131.179688 120.835938 131.179688 117.15625 C 131.179688 112.53125 132.851562 108.714844 136.183594 105.703125 C 139.519531 102.695312 143.945312 101.191406 149.441406 101.191406 C 155.230469 101.191406 159.871094 102.691406 163.355469 105.679688 C 166.839844 108.671875 168.578125 112.695312 168.578125 117.738281 L 154.761719 117.738281 C 154.761719 113.445312 152.976562 111.296875 149.390625 111.296875 C 147.925781 111.296875 146.726562 111.75 145.773438 112.660156 C 144.824219 113.570312 144.359375 114.84375 144.359375 116.46875 C 144.359375 117.640625 144.878906 118.675781 145.925781 119.570312 C 146.96875 120.464844 149.417969 121.746094 153.300781 123.40625 C 158.933594 125.488281 162.910156 127.808594 165.238281 130.363281 C 167.570312 132.917969 168.730469 136.234375 168.730469 140.300781 C 168.730469 145.023438 166.953125 148.816406 163.410156 151.679688 Z M 163.410156 151.679688 "/>
<path style=" stroke:none;fill-rule:nonzero;fill:rgb(100%,100%,100%);fill-opacity:1;" d="M 99.695312 207.335938 L 97.695312 203.4375 L 95.945312 203.4375 L 95.945312 207.335938 L 93.75 207.335938 L 93.75 196.679688 L 97.707031 196.679688 C 98.96875 196.679688 99.941406 196.957031 100.621094 197.511719 C 101.308594 198.074219 101.652344 198.867188 101.652344 199.894531 C 101.652344 200.625 101.492188 201.230469 101.175781 201.710938 C 100.863281 202.199219 100.382812 202.585938 99.742188 202.875 L 102.054688 207.234375 L 102.054688 207.335938 Z M 95.945312 198.449219 L 95.945312 201.65625 L 97.714844 201.65625 C 98.265625 201.65625 98.695312 201.515625 99 201.234375 C 99.300781 200.953125 99.449219 200.566406 99.449219 200.070312 C 99.449219 199.570312 99.304688 199.175781 99.019531 198.882812 C 98.738281 198.59375 98.300781 198.449219 97.707031 198.449219 Z M 109.914062 207.335938 L 107.773438 207.335938 C 107.675781 207.148438 107.601562 206.914062 107.558594 206.625 C 107.046875 207.199219 106.382812 207.488281 105.5625 207.488281 C 104.789062 207.488281 104.144531 207.261719 103.632812 206.8125 C 103.117188 206.363281 102.863281 205.796875 102.863281 205.117188 C 102.863281 204.273438 103.175781 203.625 103.800781 203.175781 C 104.417969 202.726562 105.320312 202.5 106.5 202.5 L 107.476562 202.5 L 107.476562 202.039062 C 107.476562 201.679688 107.382812 201.382812 107.195312 201.160156 C 107 200.941406 106.703125 200.832031 106.304688 200.832031 C 105.945312 200.832031 105.664062 200.917969 105.460938 201.09375 C 105.257812 201.261719 105.160156 201.496094 105.160156 201.796875 L 103.039062 201.796875 C 103.039062 201.335938 103.179688 200.910156 103.460938 200.523438 C 103.75 200.128906 104.148438 199.820312 104.664062 199.601562 C 105.179688 199.378906 105.761719 199.265625 106.40625 199.265625 C 107.386719 199.265625 108.164062 199.511719 108.730469 200.007812 C 109.304688 200.492188 109.59375 201.179688 109.59375 202.070312 L 109.59375 205.507812 C 109.601562 206.257812 109.707031 206.828125 109.914062 207.214844 Z M 106.023438 205.867188 C 106.335938 205.867188 106.621094 205.796875 106.882812 205.660156 C 107.148438 205.515625 107.34375 205.328125 107.476562 205.097656 L 107.476562 203.738281 L 106.679688 203.738281 C 105.621094 203.738281 105.058594 204.101562 104.992188 204.835938 L 104.980469 204.957031 C 104.980469 205.21875 105.074219 205.4375 105.261719 205.613281 C 105.445312 205.78125 105.695312 205.867188 106.023438 205.867188 Z M 113.925781 207.335938 L 111.796875 207.335938 L 111.796875 200.960938 L 110.625 200.960938 L 110.625 199.414062 L 111.796875 199.414062 L 111.796875 198.742188 C 111.796875 197.851562 112.054688 197.164062 112.566406 196.667969 C 113.078125 196.179688 113.792969 195.9375 114.710938 195.9375 C 115 195.9375 115.355469 195.984375 115.78125 196.078125 L 115.761719 197.71875 C 115.585938 197.675781 115.371094 197.652344 115.117188 197.652344 C 114.320312 197.652344 113.925781 198.027344 113.925781 198.777344 L 113.925781 199.414062 L 115.5 199.414062 L 115.5 200.960938 L 113.925781 200.960938 Z M 120.890625 205.144531 C 120.890625 204.886719 120.761719 204.683594 120.507812 204.535156 C 120.25 204.382812 119.835938 204.253906 119.269531 204.140625 C 117.386719 203.742188 116.445312 202.9375 116.445312 201.730469 C 116.445312 201.03125 116.738281 200.445312 117.320312 199.96875 C 117.898438 199.5 118.664062 199.265625 119.605469 199.265625 C 120.613281 199.265625 121.417969 199.503906 122.023438 199.976562 C 122.625 200.453125 122.925781 201.070312 122.925781 201.824219 L 120.804688 201.824219 C 120.804688 201.519531 120.710938 201.269531 120.515625 201.074219 C 120.320312 200.875 120.015625 200.773438 119.597656 200.773438 C 119.242188 200.773438 118.964844 200.855469 118.773438 201.019531 C 118.578125 201.179688 118.480469 201.382812 118.480469 201.628906 C 118.480469 201.867188 118.589844 202.054688 118.808594 202.199219 C 119.035156 202.34375 119.410156 202.46875 119.933594 202.574219 C 120.464844 202.679688 120.914062 202.800781 121.273438 202.929688 C 122.386719 203.335938 122.945312 204.046875 122.945312 205.058594 C 122.945312 205.785156 122.632812 206.367188 122.015625 206.8125 C 121.398438 207.261719 120.597656 207.488281 119.617188 207.488281 C 118.953125 207.488281 118.363281 207.367188 117.84375 207.132812 C 117.332031 206.894531 116.929688 206.570312 116.632812 206.15625 C 116.339844 205.742188 116.195312 205.296875 116.195312 204.816406 L 118.199219 204.816406 C 118.21875 205.191406 118.359375 205.476562 118.621094 205.679688 C 118.878906 205.878906 119.226562 205.976562 119.664062 205.976562 C 120.0625 205.976562 120.367188 205.902344 120.582031 205.753906 C 120.789062 205.597656 120.890625 205.394531 120.890625 205.144531 Z M 131.042969 207.335938 L 128.90625 207.335938 C 128.804688 207.148438 128.734375 206.914062 128.691406 206.625 C 128.179688 207.199219 127.511719 207.488281 126.695312 207.488281 C 125.914062 207.488281 125.269531 207.261719 124.761719 206.8125 C 124.25 206.363281 123.992188 205.796875 123.992188 205.117188 C 123.992188 204.273438 124.304688 203.625 124.929688 203.175781 C 125.550781 202.726562 126.449219 202.5 127.632812 202.5 L 128.605469 202.5 L 128.605469 202.039062 C 128.605469 201.679688 128.507812 201.382812 128.316406 201.160156 C 128.128906 200.941406 127.835938 200.832031 127.433594 200.832031 C 127.078125 200.832031 126.796875 200.917969 126.589844 201.09375 C 126.390625 201.261719 126.289062 201.496094 126.289062 201.796875 L 124.171875 201.796875 C 124.171875 201.335938 124.3125 200.910156 124.59375 200.523438 C 124.882812 200.128906 125.28125 199.820312 125.792969 199.601562 C 126.3125 199.378906 126.894531 199.265625 127.539062 199.265625 C 128.519531 199.265625 129.292969 199.511719 129.863281 200.007812 C 130.4375 200.492188 130.726562 201.179688 130.726562 202.070312 L 130.726562 205.507812 C 130.730469 206.257812 130.835938 206.828125 131.042969 207.214844 Z M 127.152344 205.867188 C 127.464844 205.867188 127.753906 205.796875 128.015625 205.660156 C 128.277344 205.515625 128.476562 205.328125 128.605469 205.097656 L 128.605469 203.738281 L 127.808594 203.738281 C 126.753906 203.738281 126.191406 204.101562 126.121094 204.835938 L 126.113281 204.957031 C 126.113281 205.21875 126.207031 205.4375 126.394531 205.613281 C 126.574219 205.78125 126.828125 205.867188 127.152344 205.867188 Z M 132.308594 199.414062 L 134.296875 199.414062 L 134.363281 200.324219 C 134.929688 199.617188 135.691406 199.265625 136.640625 199.265625 C 137.484375 199.265625 138.109375 199.511719 138.515625 200.007812 C 138.929688 200.5 139.140625 201.238281 139.152344 202.21875 L 139.152344 207.335938 L 137.035156 207.335938 L 137.035156 202.265625 C 137.035156 201.820312 136.9375 201.496094 136.742188 201.289062 C 136.542969 201.089844 136.21875 200.992188 135.769531 200.992188 C 135.167969 200.992188 134.722656 201.242188 134.429688 201.75 L 134.429688 207.335938 L 132.308594 207.335938 Z M 132.308594 199.414062 "/>
</g>
</svg>
