<svg xmlns="http://www.w3.org/2000/svg" width="32" height="32"><g transform="translate(0 -1021.07)"><path fill-rule="evenodd" d="M1 1030.07v14h19.992l4-7-4-7H1zm19.496 5a1.49 1.49 0 0 1 1.473 1.745 1.488 1.488 0 0 1-1.473 1.744 1.488 1.488 0 0 1-1.473-1.744 1.49 1.49 0 0 1 1.473-1.746z" color="#000" opacity=".15" overflow="visible" style="isolation:auto;mix-blend-mode:normal"/><circle cx="11.384" cy="1036.362" r="5.5" fill="#4bbfeb" color="#000" overflow="visible" style="isolation:auto;mix-blend-mode:normal"/><path fill="#25b39e" fill-rule="evenodd" d="M1.884 1029.362v14h19.992l4-7-4-7H1.884zm19.496 5a1.49 1.49 0 0 1 1.473 1.746 1.488 1.488 0 0 1-1.473 1.744 1.488 1.488 0 0 1-1.473-1.744 1.49 1.49 0 0 1 1.473-1.746z" color="#000" overflow="visible" style="isolation:auto;mix-blend-mode:normal"/><g style="line-height:125%"><path style="-inkscape-font-specification:'Bebas Neue Bold'" d="M3.036 1034.176c0 2.402 2.583 2.727 2.583 4.456 0 .601-.265.817-.685.817-.42 0-.685-.216-.685-.817v-.6H3v.516c0 1.346.673 2.114 1.97 2.114s1.97-.768 1.97-2.114c0-2.402-2.583-2.726-2.583-4.456 0-.6.24-.829.661-.829.42 0 .66.228.66.829v.348h1.25v-.264c0-1.345-.66-2.114-1.946-2.114-1.285 0-1.946.769-1.946 2.114zm5.97-.817h2.283v-1.201H7.685v8.408h3.604v-1.2H9.007v-2.463h1.813v-1.202H9.007v-2.342zm4.303.733c0-.6.265-.829.685-.829.42 0 .685.228.685.829v4.54c0 .601-.265.83-.685.83-.42 0-.685-.229-.685-.83v-4.54zm-1.321 4.456c0 1.346.709 2.114 2.006 2.114 1.297 0 2.006-.768 2.006-2.114v-4.372c0-1.345-.709-2.114-2.006-2.114-1.297 0-2.006.769-2.006 2.114v4.372z" font-family="Bebas Neue" font-size="12.012" font-weight="700" letter-spacing="0" opacity=".15" transform="translate(.884)" word-spacing="0"/></g><g style="line-height:125%"><path style="-inkscape-font-specification:'Bebas Neue Bold'" fill="#34485c" d="M3.036 1034.176c0 2.402 2.583 2.727 2.583 4.456 0 .601-.265.817-.685.817-.42 0-.685-.216-.685-.817v-.6H3v.516c0 1.346.673 2.114 1.97 2.114s1.97-.768 1.97-2.114c0-2.402-2.583-2.726-2.583-4.456 0-.6.24-.829.661-.829.42 0 .66.228.66.829v.348h1.25v-.264c0-1.345-.66-2.114-1.946-2.114-1.285 0-1.946.769-1.946 2.114zm5.97-.817h2.283v-1.201H7.685v8.408h3.604v-1.2H9.007v-2.463h1.813v-1.202H9.007v-2.342zm4.303.733c0-.6.265-.829.685-.829.42 0 .685.228.685.829v4.54c0 .601-.265.83-.685.83-.42 0-.685-.229-.685-.83v-4.54zm-1.321 4.456c0 1.346.709 2.114 2.006 2.114 1.297 0 2.006-.768 2.006-2.114v-4.372c0-1.345-.709-2.114-2.006-2.114-1.297 0-2.006.769-2.006 2.114v4.372z" font-family="Bebas Neue" font-size="12.012" font-weight="700" letter-spacing="0" transform="translate(1.884)" word-spacing="0"/></g><path fill-rule="evenodd" d="m24.324 13.281.612 1.073a2.069 2.069 0 0 1 1.074 1.751c.02.607-.226 1.211-.711 1.637a2.085 2.085 0 0 1-2.719.033 2.087 2.087 0 0 1-.75-1.605V15.754a1.205 1.205 0 0 0-.47-.98 2.96 2.96 0 0 0-.323 1.882 2.922 2.922 0 0 0 4.815 1.715c.54-.474.864-1.111.96-1.781h1.294a2.092 2.092 0 0 1 2.09 2.09c-.009.565.843.565.835 0a2.926 2.926 0 0 0-2.925-2.926h-1.302a2.895 2.895 0 0 0-.415-1.152 2.92 2.92 0 0 0-2.065-1.32z" color="#000" font-family="sans-serif" font-weight="400" opacity=".15" overflow="visible" transform="translate(0 1020.362)" style="line-height:normal;text-indent:0;text-align:start;text-decoration-line:none;text-decoration-style:solid;text-decoration-color:#000;text-transform:none;block-progression:tb;isolation:auto;mix-blend-mode:normal"/><path fill-rule="evenodd" d="M23 1036.355a2.505 2.505 0 0 0-2.496-2.498 2.505 2.505 0 0 0-2.496 2.498 2.503 2.503 0 0 0 2.496 2.497 2.503 2.503 0 0 0 2.496-2.497zm-1 0c0 .833-.664 1.497-1.496 1.497a1.488 1.488 0 0 1-1.496-1.497 1.49 1.49 0 0 1 1.496-1.498 1.49 1.49 0 0 1 1.496 1.498z" color="#000" font-family="sans-serif" font-weight="400" opacity=".15" overflow="visible" style="line-height:normal;text-indent:0;text-align:start;text-decoration-line:none;text-decoration-style:solid;text-decoration-color:#000;text-transform:none;block-progression:tb;isolation:auto;mix-blend-mode:normal"/><circle cx="1036.355" cy="-21.38" r="1.996" fill="none" stroke="#cad1d8" stroke-linecap="round" stroke-linejoin="round" color="#000" overflow="visible" transform="rotate(90)" style="isolation:auto;mix-blend-mode:normal"/><path fill="#34485c" fill-rule="evenodd" d="M24.648 1033.614c-.106.01-.211.027-.317.045l.453.793a2.076 2.076 0 0 1 2.11 2.016c.02.606-.226 1.21-.711 1.636a2.085 2.085 0 0 1-2.719.033 2.087 2.087 0 0 1-.75-1.605V1036.116a1.205 1.205 0 0 0-.47-.98 2.961 2.961 0 0 0-.323 1.882 2.922 2.922 0 0 0 4.814 1.715c.54-.474.865-1.111.961-1.782h1.293a2.092 2.092 0 0 1 2.09 2.09c-.008.566.844.566.836 0a2.926 2.926 0 0 0-2.926-2.926h-1.301a2.895 2.895 0 0 0-.415-1.152 2.93 2.93 0 0 0-2.625-1.35z" color="#000" font-family="sans-serif" font-weight="400" overflow="visible" style="line-height:normal;text-indent:0;text-align:start;text-decoration-line:none;text-decoration-style:solid;text-decoration-color:#000;text-transform:none;block-progression:tb;isolation:auto;mix-blend-mode:normal"/></g></svg>